<?xml version="1.0" standalone="no"?><!DOCTYPE svg PUBLIC "-//W3C//DTD SVG 1.1//EN" "http://www.w3.org/Graphics/SVG/1.1/DTD/svg11.dtd"><svg t="1591172383355" class="icon" viewBox="0 0 1024 1024" version="1.1" xmlns="http://www.w3.org/2000/svg" p-id="7483" xmlns:xlink="http://www.w3.org/1999/xlink" width="200" height="200"><defs><style type="text/css"></style></defs><path d="M1018.948267 547.293867L852.445867 109.226667H672.9728v33.723733h137.0112l112.298667 399.9744H680.891733l-171.554133 157.2864-182.0672-157.2864H88.541867l112.298666-400.042667h139.605334v-33.655466h-176.810667L0 553.506133h0.887467A15.701333 15.701333 0 0 0 0 558.762667v449.467733c0 8.669867 7.099733 15.7696 15.837867 15.7696h992.324266a15.837867 15.837867 0 0 0 15.837867-15.7696V558.762667a15.701333 15.701333 0 0 0-5.051733-11.4688zM589.2096 204.117333h91.5456L506.6752 0 337.578667 204.117333h91.477333v221.184h160.221867V204.117333zM429.056 476.3648H589.141333v-28.398933H429.056v28.398933z" fill="#228b22" p-id="7484"></path></svg>